<svg xmlns="http://www.w3.org/2000/svg" width="88.269234" height="88.269234" viewBox="-1.5 -1.5 153.00001 153.00001"><g fill="none" stroke="#000" stroke-width="3"><path d="M0 0h50v50H0z"/><circle cx="25" cy="25" r="25"/></g><g stroke="#000" stroke-width="3"><path fill="none" d="M50 0h50v50H50z"/><path d="M50 0l50 50"/></g><g stroke="#000" stroke-width="3"><path fill="none" d="M100 0h50v50h-50z"/><path d="M150 0l-50 50"/></g><g fill="none" stroke="#000" stroke-width="3"><path d="M50 50h50v50H50z"/><circle cx="75" cy="75" r="25"/></g><g stroke="#000" stroke-width="3"><path fill="none" d="M0 100h50v50H0z"/><path d="M50 100L0 150"/></g><g stroke="#000" stroke-width="3"><path fill="none" d="M50 100h50v50H50z"/><path d="M50 100l50 50"/></g><g stroke="#000" stroke-width="3"><path fill="none" d="M100 100h50v50h-50z"/><path d="M150 100l-50 50"/></g></svg>